<?xml version="1.0" encoding="UTF-8" standalone="no"?>
<!-- Created with Inkscape (http://www.inkscape.org/) -->

<svg
   xmlns:dc="http://purl.org/dc/elements/1.1/"
   xmlns:cc="http://creativecommons.org/ns#"
   xmlns:rdf="http://www.w3.org/1999/02/22-rdf-syntax-ns#"
   xmlns:svg="http://www.w3.org/2000/svg"
   xmlns="http://www.w3.org/2000/svg"
   xmlns:xlink="http://www.w3.org/1999/xlink"
   xmlns:sodipodi="http://sodipodi.sourceforge.net/DTD/sodipodi-0.dtd"
   xmlns:inkscape="http://www.inkscape.org/namespaces/inkscape"
   width="297mm"
   height="210mm"
   id="svg3117"
   version="1.1"
   inkscape:version="0.48.0 r9654"
   sodipodi:docname="sprintcamplogo_v1.svg"
   style="display:inline"
   inkscape:export-filename="/Users/derhasi/Dropbox/Schatzi - Shared/logo4.png"
   inkscape:export-xdpi="90.037247"
   inkscape:export-ydpi="90.037247">
  <defs
     id="defs3119">
    <clipPath
       id="SVGID_4_-1">
      <use
         height="1"
         width="1"
         y="0"
         x="0"
         style="overflow:visible"
         xlink:href="#SVGID_3_"
         overflow="visible"
         id="use3006-7" />
    </clipPath>
    <inkscape:perspective
       sodipodi:type="inkscape:persp3d"
       inkscape:vp_x="0 : 0.5 : 1"
       inkscape:vp_y="0 : 1000 : 0"
       inkscape:vp_z="1 : 0.5 : 1"
       inkscape:persp3d-origin="0.5 : 0.33333333 : 1"
       id="perspective3661" />
    <clipPath
       id="SVGID_4_">
      <use
         height="1"
         width="1"
         y="0"
         x="0"
         style="overflow:visible"
         xlink:href="#SVGID_3_"
         overflow="visible"
         id="use3006" />
    </clipPath>
    <defs
       id="defs3002">
      <rect
         y="0"
         x="0"
         id="SVGID_3_"
         width="136.89101"
         height="21.247999" />
    </defs>
    <inkscape:perspective
       sodipodi:type="inkscape:persp3d"
       inkscape:vp_x="0 : 10.624 : 1"
       inkscape:vp_y="0 : 1000 : 0"
       inkscape:vp_z="136.89101 : 10.624 : 1"
       inkscape:persp3d-origin="68.445503 : 7.0826664 : 1"
       id="perspective3034" />
    <inkscape:perspective
       sodipodi:type="inkscape:persp3d"
       inkscape:vp_x="0 : 10.624 : 1"
       inkscape:vp_y="0 : 1000 : 0"
       inkscape:vp_z="136.89101 : 10.624 : 1"
       inkscape:persp3d-origin="68.445503 : 7.0826664 : 1"
       id="perspective2908" />
    <inkscape:perspective
       id="perspective10"
       inkscape:persp3d-origin="372.04724 : 350.78739 : 1"
       inkscape:vp_z="744.09448 : 526.18109 : 1"
       inkscape:vp_y="0 : 1000 : 0"
       inkscape:vp_x="0 : 526.18109 : 1"
       sodipodi:type="inkscape:persp3d" />
  </defs>
  <sodipodi:namedview
     inkscape:document-units="mm"
     pagecolor="#ffffff"
     bordercolor="#666666"
     borderopacity="1.0"
     inkscape:pageopacity="0.0"
     inkscape:pageshadow="2"
     inkscape:zoom="0.57848045"
     inkscape:cx="881.88639"
     inkscape:cy="291.17312"
     inkscape:current-layer="g3837"
     id="namedview3121"
     showgrid="false"
     inkscape:window-width="2160"
     inkscape:window-height="1084"
     inkscape:window-x="297"
     inkscape:window-y="63"
     inkscape:window-maximized="0" />
  <metadata
     id="metadata3123">
    <rdf:RDF>
      <cc:Work
         rdf:about="">
        <dc:format>image/svg+xml</dc:format>
        <dc:type
           rdf:resource="http://purl.org/dc/dcmitype/StillImage" />
        <dc:title></dc:title>
      </cc:Work>
    </rdf:RDF>
  </metadata>
  <g
     inkscape:groupmode="layer"
     id="layer2"
     inkscape:label="bg"
     sodipodi:insensitive="true"
     style="display:inline">
    <rect
       style="fill:#ffffff;fill-opacity:1;stroke:none"
       id="rect3787"
       width="2012.3077"
       height="673.84613"
       x="47.692307"
       y="16.402174" />
  </g>
  <g
     inkscape:label="Logo &amp; Tipi (gruen schwarz)"
     inkscape:groupmode="layer"
     id="g3772"
     style="display:none"
     sodipodi:insensitive="true">
    <path
       inkscape:connector-curvature="0"
       id="path3774"
       d="m 237.93677,327.31106 c -15.24523,0 -28.04383,10.56511 -31.5,24.75 4.38507,1.37812 11.13867,6.42924 14.625,6.125 4.89185,-0.4419 10.55797,-10.82354 20.25,-11.78125 7.62298,-0.73536 14.31735,4.64722 15.09375,11.09375 0.47404,3.63263 -0.48514,6.40147 -2.78125,8.40625 -1.53963,1.25377 -2.94053,2.18518 -7.90625,2.71875 -8.19342,0.88039 -19.71759,-8.1813 -24.5,-7.5 -3.78926,0.5746 -8.73476,10.46282 -11.6875,11.03125 -0.53902,0.0972 -1.0403,0.1194 -1.5,0.0625 4.89489,11.69657 16.43899,19.9375 29.90625,19.9375 17.89545,0 32.4375,-14.51101 32.4375,-32.40625 0,-8.94735 -11.12258,-19.68995 2.375,-31.71875 -20.831,3.81515 -25.86478,-0.71875 -34.8125,-0.71875 z m 96.5,25.03125 c -0.70355,-10e-4 -1.30419,0.0869 -1.8125,0.28125 -12.85647,4.78363 -28.33926,10.01992 -42.5,15.03125 0,0 -2.32237,17.00711 -14.4375,28.90625 -13.18136,12.94693 -32.53125,15.65625 -32.53125,15.65625 l -25.40625,24.46875 c -10.26992,4.38184 -50.78938,-71.62923 -60.65625,-65.03125 -16.67622,11.1514 36.36103,107.18146 66.65625,84.03125 6.69835,-5.11857 30.31373,-21.82954 36.5,-25.96875 5.12504,-3.42914 35.07943,30.78431 46.1875,38.28125 -15.84038,10.18225 -74.56167,60.72288 -73.6875,66.0625 2.12894,13.00404 140.64035,16.44527 140.53125,9.8125 -0.24834,-15.09844 -88.51485,-22.72094 -88.46875,-24.34375 0.0461,-1.6228 46.56888,-24.82746 53.96875,-31.71875 2.22192,-2.0692 35.89053,46.01461 72.6875,62.5625 5.03391,2.26379 101.15852,74.76433 103.96875,67.5 7.67682,-19.8443 -94.00225,-79.34914 -97.375,-86.8125 -9.40478,-20.81128 -50.55792,-62.1312 -52.125,-67.6875 -6.02821,-21.37386 -28.80802,-28.50173 -37.40625,-36.6875 -6.37545,-6.06962 -20.62519,-21.06577 -18.75,-27.125 3.22216,-10.41164 15.22604,-24.54095 26.96875,-23.9375 24.11113,1.23904 48.02515,37.96277 57.9375,24.28125 6.33988,-8.7506 -45.94453,-47.53558 -60.25,-47.5625 z"
       style="color:#000000;fill:#7fc100;fill-opacity:1;fill-rule:nonzero;stroke:none;stroke-width:6;marker:none;visibility:visible;display:inline;overflow:visible;enable-background:accumulate" />
    <path
       id="path3776"
       d="m 1344.8621,517.49018 c 15,45.75 0.75,87 -9,112.5 -9.75,25.5 -60,136.5 -331.5,258 -50.25001,22.5 -60.75001,32.25 -117.75001,33 -48,0.75 -72.75,-15.75 -88.5,-30 l -7.437,0.266 c 60.7,103.201 175.397,169.23402 298.43701,169.23402 180.75,0 337.5,-131.25002 337.5,-330.00002 0,-109.146 -44.332,-185.488 -88.28,-234.63 1.524,5.706 3.634,12.798 6.53,21.63 z"
       style="fill:none"
       inkscape:connector-curvature="0" />
    <path
       style="fill:#000000;stroke:none"
       d="m 394.18605,441.76891 133.72093,-268.60466 -36.04651,-69.76744 3.48837,-25.581397 31.39535,56.976747 2.32558,-84.883724 15.11628,24.418605 0,65.116279 31.39535,-59.302326 2.32558,32.558136 -32.55814,60.46512 229.06977,452.32558 -168.60465,0 -69.76744,-258.13953 -40.69768,161.62791 c 0,0 -48.32699,-3.70019 -61.04652,-37.7907 -12.71952,-34.0905 -40.11627,-49.4186 -40.11627,-49.4186 z"
       id="path4704"
       inkscape:connector-curvature="0"
       sodipodi:nodetypes="ccccccccccccccczc" />
  </g>
  <g
     style="display:none"
     id="g4725"
     inkscape:groupmode="layer"
     inkscape:label="Logo &amp; Tipi (pink blau)"
     sodipodi:insensitive="true">
    <path
       style="color:#000000;fill:#5e95df;fill-opacity:1;fill-rule:nonzero;stroke:none;stroke-width:6;marker:none;visibility:visible;display:inline;overflow:visible;enable-background:accumulate"
       d="m 237.93677,327.31106 c -15.24523,0 -28.04383,10.56511 -31.5,24.75 4.38507,1.37812 11.13867,6.42924 14.625,6.125 4.89185,-0.4419 10.55797,-10.82354 20.25,-11.78125 7.62298,-0.73536 14.31735,4.64722 15.09375,11.09375 0.47404,3.63263 -0.48514,6.40147 -2.78125,8.40625 -1.53963,1.25377 -2.94053,2.18518 -7.90625,2.71875 -8.19342,0.88039 -19.71759,-8.1813 -24.5,-7.5 -3.78926,0.5746 -8.73476,10.46282 -11.6875,11.03125 -0.53902,0.0972 -1.0403,0.1194 -1.5,0.0625 4.89489,11.69657 16.43899,19.9375 29.90625,19.9375 17.89545,0 32.4375,-14.51101 32.4375,-32.40625 0,-8.94735 -11.12258,-19.68995 2.375,-31.71875 -20.831,3.81515 -25.86478,-0.71875 -34.8125,-0.71875 z m 96.5,25.03125 c -0.70355,-10e-4 -1.30419,0.0869 -1.8125,0.28125 -12.85647,4.78363 -28.33926,10.01992 -42.5,15.03125 0,0 -2.32237,17.00711 -14.4375,28.90625 -13.18136,12.94693 -32.53125,15.65625 -32.53125,15.65625 l -25.40625,24.46875 c -10.26992,4.38184 -50.78938,-71.62923 -60.65625,-65.03125 -16.67622,11.1514 36.36103,107.18146 66.65625,84.03125 6.69835,-5.11857 30.31373,-21.82954 36.5,-25.96875 5.12504,-3.42914 35.07943,30.78431 46.1875,38.28125 -15.84038,10.18225 -74.56167,60.72288 -73.6875,66.0625 2.12894,13.00404 140.64035,16.44527 140.53125,9.8125 -0.24834,-15.09844 -88.51485,-22.72094 -88.46875,-24.34375 0.0461,-1.6228 46.56888,-24.82746 53.96875,-31.71875 2.22192,-2.0692 35.89053,46.01461 72.6875,62.5625 5.03391,2.26379 101.15852,74.76433 103.96875,67.5 7.67682,-19.8443 -94.00225,-79.34914 -97.375,-86.8125 -9.40478,-20.81128 -50.55792,-62.1312 -52.125,-67.6875 -6.02821,-21.37386 -28.80802,-28.50173 -37.40625,-36.6875 -6.37545,-6.06962 -20.62519,-21.06577 -18.75,-27.125 3.22216,-10.41164 15.22604,-24.54095 26.96875,-23.9375 24.11113,1.23904 48.02515,37.96277 57.9375,24.28125 6.33988,-8.7506 -45.94453,-47.53558 -60.25,-47.5625 z"
       id="path4727"
       inkscape:connector-curvature="0" />
    <path
       inkscape:connector-curvature="0"
       style="fill:none"
       d="m 1344.8621,517.49018 c 15,45.75 0.75,87 -9,112.5 -9.75,25.5 -60,136.5 -331.5,258 -50.25001,22.5 -60.75001,32.25 -117.75001,33 -48,0.75 -72.75,-15.75 -88.5,-30 l -7.437,0.266 c 60.7,103.201 175.397,169.23402 298.43701,169.23402 180.75,0 337.5,-131.25002 337.5,-330.00002 0,-109.146 -44.332,-185.488 -88.28,-234.63 1.524,5.706 3.634,12.798 6.53,21.63 z"
       id="path4729" />
    <path
       sodipodi:nodetypes="ccccccccccccccczc"
       inkscape:connector-curvature="0"
       id="path4731"
       d="m 394.18605,441.76891 133.72093,-268.60466 -36.04651,-69.76744 3.48837,-25.581397 31.39535,56.976747 2.32558,-84.883724 15.11628,24.418605 0,65.116279 31.39535,-59.302326 2.32558,32.558136 -32.55814,60.46512 229.06977,452.32558 -168.60465,0 -69.76744,-258.13953 -40.69768,161.62791 c 0,0 -48.32699,-3.70019 -61.04652,-37.7907 -12.71952,-34.0905 -40.11627,-49.4186 -40.11627,-49.4186 z"
       style="fill:#db3d9c;fill-opacity:1;stroke:none" />
  </g>
  <g
     inkscape:label="Logo &amp; Tipi (pink blau) Kopie"
     inkscape:groupmode="layer"
     id="g3789"
     style="display:none"
     sodipodi:insensitive="true">
    <path
       inkscape:connector-curvature="0"
       id="path3791"
       d="m 237.93677,327.31106 c -15.24523,0 -28.04383,10.56511 -31.5,24.75 4.38507,1.37812 11.13867,6.42924 14.625,6.125 4.89185,-0.4419 10.55797,-10.82354 20.25,-11.78125 7.62298,-0.73536 14.31735,4.64722 15.09375,11.09375 0.47404,3.63263 -0.48514,6.40147 -2.78125,8.40625 -1.53963,1.25377 -2.94053,2.18518 -7.90625,2.71875 -8.19342,0.88039 -19.71759,-8.1813 -24.5,-7.5 -3.78926,0.5746 -8.73476,10.46282 -11.6875,11.03125 -0.53902,0.0972 -1.0403,0.1194 -1.5,0.0625 4.89489,11.69657 16.43899,19.9375 29.90625,19.9375 17.89545,0 32.4375,-14.51101 32.4375,-32.40625 0,-8.94735 -11.12258,-19.68995 2.375,-31.71875 -20.831,3.81515 -25.86478,-0.71875 -34.8125,-0.71875 z m 96.5,25.03125 c -0.70355,-10e-4 -1.30419,0.0869 -1.8125,0.28125 -12.85647,4.78363 -28.33926,10.01992 -42.5,15.03125 0,0 -2.32237,17.00711 -14.4375,28.90625 -13.18136,12.94693 -32.53125,15.65625 -32.53125,15.65625 l -25.40625,24.46875 c -10.26992,4.38184 -50.78938,-71.62923 -60.65625,-65.03125 -16.67622,11.1514 36.36103,107.18146 66.65625,84.03125 6.69835,-5.11857 30.31373,-21.82954 36.5,-25.96875 5.12504,-3.42914 35.07943,30.78431 46.1875,38.28125 -15.84038,10.18225 -74.56167,60.72288 -73.6875,66.0625 2.12894,13.00404 140.64035,16.44527 140.53125,9.8125 -0.24834,-15.09844 -88.51485,-22.72094 -88.46875,-24.34375 0.0461,-1.6228 46.56888,-24.82746 53.96875,-31.71875 2.22192,-2.0692 35.89053,46.01461 72.6875,62.5625 5.03391,2.26379 101.15852,74.76433 103.96875,67.5 7.67682,-19.8443 -94.00225,-79.34914 -97.375,-86.8125 -9.40478,-20.81128 -50.55792,-62.1312 -52.125,-67.6875 -6.02821,-21.37386 -28.80802,-28.50173 -37.40625,-36.6875 -6.37545,-6.06962 -20.62519,-21.06577 -18.75,-27.125 3.22216,-10.41164 15.22604,-24.54095 26.96875,-23.9375 24.11113,1.23904 48.02515,37.96277 57.9375,24.28125 6.33988,-8.7506 -45.94453,-47.53558 -60.25,-47.5625 z"
       style="color:#000000;fill:#5e95df;fill-opacity:1;fill-rule:nonzero;stroke:none;stroke-width:6;marker:none;visibility:visible;display:inline;overflow:visible;enable-background:accumulate" />
    <path
       id="path3793"
       d="m 1344.8621,517.49018 c 15,45.75 0.75,87 -9,112.5 -9.75,25.5 -60,136.5 -331.5,258 -50.25001,22.5 -60.75001,32.25 -117.75001,33 -48,0.75 -72.75,-15.75 -88.5,-30 l -7.437,0.266 c 60.7,103.201 175.397,169.23402 298.43701,169.23402 180.75,0 337.5,-131.25002 337.5,-330.00002 0,-109.146 -44.332,-185.488 -88.28,-234.63 1.524,5.706 3.634,12.798 6.53,21.63 z"
       style="fill:none"
       inkscape:connector-curvature="0" />
    <path
       style="fill:#db3d9c;fill-opacity:1;stroke:none"
       d="m 394.18605,441.76891 133.72093,-268.60466 -36.04651,-69.76744 3.48837,-25.581397 31.39535,56.976747 9.90172,17.64676 0.46907,1.1851 7.07107,-14.1807 31.39535,-59.302326 2.32558,32.558136 -32.55814,60.46512 229.06977,452.32558 -168.60465,0 -69.76744,-258.13953 -40.69768,161.62791 c 0,0 -48.32699,-3.70019 -61.04652,-37.7907 -12.71952,-34.0905 -40.11627,-49.4186 -40.11627,-49.4186 z"
       id="path3795"
       inkscape:connector-curvature="0"
       sodipodi:nodetypes="ccccccccccccccczc" />
  </g>
  <g
     inkscape:groupmode="layer"
     id="layer1"
     inkscape:label="Schrift"
     sodipodi:insensitive="true"
     style="display:none">
    <text
       xml:space="preserve"
       style="font-size:40px;font-style:normal;font-weight:normal;line-height:82.99999833%;letter-spacing:0px;word-spacing:0px;fill:#000000;fill-opacity:1;stroke:none;font-family:Sans"
       x="701.44897"
       y="299.65799"
       id="text3008"
       sodipodi:linespacing="82.999998%"><tspan
         sodipodi:role="line"
         id="tspan3010"
         x="701.44897"
         y="299.65799"
         style="font-size:144px;font-style:normal;font-variant:normal;font-weight:normal;font-stretch:normal;line-height:82.99999833%;fill:#db3d9c;fill-opacity:1;font-family:Good Times;-inkscape-font-specification:Good Times">Drupal</tspan><tspan
         sodipodi:role="line"
         x="701.44897"
         y="419.17798"
         style="font-size:144px;font-style:normal;font-variant:normal;font-weight:normal;font-stretch:normal;line-height:82.99999833%;font-family:Good Times;-inkscape-font-specification:Good Times"
         id="tspan3014">  Sprintcamp</tspan><tspan
         sodipodi:role="line"
         x="701.44897"
         y="538.698"
         id="tspan3012"
         style="font-size:144px;font-style:normal;font-variant:normal;font-weight:normal;font-stretch:normal;line-height:82.99999833%;fill:#5e95df;fill-opacity:1;font-family:Good Times;-inkscape-font-specification:Good Times">    Hannover</tspan></text>
  </g>
  <g
     style="display:none"
     id="g3797"
     inkscape:groupmode="layer"
     inkscape:label="Logo &amp; Tipi (pink blau) Kopie Kopie"
     sodipodi:insensitive="true">
    <path
       style="color:#000000;fill:#5e95df;fill-opacity:1;fill-rule:nonzero;stroke:none;stroke-width:6;marker:none;visibility:visible;display:inline;overflow:visible;enable-background:accumulate"
       d="m 690.40232,327.31106 c 15.24523,0 28.04383,10.56511 31.5,24.75 -4.38507,1.37812 -11.13867,6.42924 -14.625,6.125 -4.89185,-0.4419 -10.55797,-10.82354 -20.25,-11.78125 -7.62298,-0.73536 -14.31735,4.64722 -15.09375,11.09375 -0.47404,3.63263 0.48514,6.40147 2.78125,8.40625 1.53963,1.25377 2.94053,2.18518 7.90625,2.71875 8.19342,0.88039 19.71759,-8.1813 24.5,-7.5 3.78926,0.5746 8.73476,10.46282 11.6875,11.03125 0.53902,0.0972 1.0403,0.1194 1.5,0.0625 -4.89489,11.69657 -16.43899,19.9375 -29.90625,19.9375 -17.89545,0 -32.4375,-14.51101 -32.4375,-32.40625 0,-8.94735 11.12258,-19.68995 -2.375,-31.71875 20.831,3.81515 25.86478,-0.71875 34.8125,-0.71875 z m -96.5,25.03125 c 0.70355,-10e-4 1.30419,0.0869 1.8125,0.28125 12.85647,4.78363 28.33926,10.01992 42.5,15.03125 0,0 2.32237,17.00711 14.4375,28.90625 13.18136,12.94693 32.53125,15.65625 32.53125,15.65625 l 25.40625,24.46875 c 10.26992,4.38184 50.78938,-71.62923 60.65625,-65.03125 16.67622,11.1514 -36.36103,107.18146 -66.65625,84.03125 -6.69835,-5.11857 -30.31373,-21.82954 -36.5,-25.96875 -5.12504,-3.42914 -35.07943,30.78431 -46.1875,38.28125 15.84038,10.18225 74.56167,60.72288 73.6875,66.0625 -2.12894,13.00404 -140.64035,16.44527 -140.53125,9.8125 0.24834,-15.09844 88.51485,-22.72094 88.46875,-24.34375 -0.0461,-1.6228 -46.56888,-24.82746 -53.96875,-31.71875 -2.22192,-2.0692 -35.89053,46.01461 -72.6875,62.5625 -5.03391,2.26379 -101.15852,74.76433 -103.96875,67.5 -7.67682,-19.8443 94.00225,-79.34914 97.375,-86.8125 9.40478,-20.81128 50.55792,-62.1312 52.125,-67.6875 6.02821,-21.37386 28.80802,-28.50173 37.40625,-36.6875 6.37545,-6.06962 20.62519,-21.06577 18.75,-27.125 -3.22216,-10.41164 -15.22604,-24.54095 -26.96875,-23.9375 -24.11113,1.23904 -48.02515,37.96277 -57.9375,24.28125 -6.33988,-8.7506 45.94453,-47.53558 60.25,-47.5625 z"
       id="path3799"
       inkscape:connector-curvature="0" />
    <path
       inkscape:connector-curvature="0"
       style="fill:none"
       d="m 1344.8621,517.49018 c 15,45.75 0.75,87 -9,112.5 -9.75,25.5 -60,136.5 -331.5,258 -50.25001,22.5 -60.75001,32.25 -117.75001,33 -48,0.75 -72.75,-15.75 -88.5,-30 l -7.437,0.266 c 60.7,103.201 175.397,169.23402 298.43701,169.23402 180.75,0 337.5,-131.25002 337.5,-330.00002 0,-109.146 -44.332,-185.488 -88.28,-234.63 1.524,5.706 3.634,12.798 6.53,21.63 z"
       id="path3801" />
    <path
       sodipodi:nodetypes="ccccccccccccccczc"
       inkscape:connector-curvature="0"
       id="path3803"
       d="m 534.15304,441.76891 -133.72093,-268.60466 36.04651,-69.76744 -3.48837,-25.581397 -31.39535,56.976747 -9.90172,17.64676 -0.46907,1.1851 -7.07107,-14.1807 -31.39535,-59.302326 -2.32558,32.558136 32.55814,60.46512 -229.06977,452.32558 168.60465,0 69.76744,-258.13953 40.69768,161.62791 c 0,0 48.32699,-3.70019 61.04652,-37.7907 12.71952,-34.0905 40.11627,-49.4186 40.11627,-49.4186 z"
       style="fill:#db3d9c;fill-opacity:1;stroke:none" />
  </g>
  <g
     inkscape:label="Schrift Kopie"
     id="g3805"
     inkscape:groupmode="layer"
     sodipodi:insensitive="true"
     style="display:none">
    <text
       sodipodi:linespacing="82.999998%"
       id="text3807"
       y="430.60864"
       x="1023.4573"
       style="font-size:32.02018738px;font-style:normal;font-weight:normal;line-height:82.99999833%;letter-spacing:0px;word-spacing:0px;fill:#000000;fill-opacity:1;stroke:none;font-family:Sans"
       xml:space="preserve"><tspan
         style="font-size:115.27267456px;font-style:normal;font-variant:normal;font-weight:normal;font-stretch:normal;line-height:82.99999833%;fill:#db3d9c;fill-opacity:1;font-family:Good Times;-inkscape-font-specification:Good Times"
         y="430.60864"
         x="1023.4573"
         id="tspan3809"
         sodipodi:role="line">Drupal</tspan><tspan
         id="tspan3811"
         style="font-size:115.27267456px;font-style:normal;font-variant:normal;font-weight:normal;font-stretch:normal;line-height:82.99999833%;font-family:Good Times;-inkscape-font-specification:Good Times"
         y="526.28497"
         x="1023.4573"
         sodipodi:role="line">Sprintcamp</tspan><tspan
         style="font-size:115.27267456px;font-style:normal;font-variant:normal;font-weight:normal;font-stretch:normal;line-height:82.99999833%;fill:#5e95df;fill-opacity:1;font-family:Good Times;-inkscape-font-specification:Good Times"
         id="tspan3813"
         y="621.9613"
         x="1023.4573"
         sodipodi:role="line">Hannover</tspan></text>
  </g>
  <g
     inkscape:label="Logo &amp; Tipi (pink blau) Kopie Kopie Kopie"
     inkscape:groupmode="layer"
     id="g3815"
     style="display:inline">
    <path
       id="path3819"
       d="m 1344.8621,517.49018 c 15,45.75 0.75,87 -9,112.5 -9.75,25.5 -60,136.5 -331.5,258 -50.25001,22.5 -60.75001,32.25 -117.75001,33 -48,0.75 -72.75,-15.75 -88.5,-30 l -7.437,0.266 c 60.7,103.201 175.397,169.23402 298.43701,169.23402 180.75,0 337.5,-131.25002 337.5,-330.00002 0,-109.146 -44.332,-185.488 -88.28,-234.63 1.524,5.706 3.634,12.798 6.53,21.63 z"
       style="fill:none"
       inkscape:connector-curvature="0" />
    <g
       id="g3833"
       transform="translate(1140,0)">
      <path
         style="color:#000000;fill:#5e95df;fill-opacity:1;fill-rule:nonzero;stroke:none;stroke-width:6;marker:none;visibility:visible;display:inline;overflow:visible;enable-background:accumulate"
         d="m 690.40232,327.31106 c 15.24523,0 28.04383,10.56511 31.5,24.75 -4.38507,1.37812 -11.13867,6.42924 -14.625,6.125 -4.89185,-0.4419 -10.55797,-10.82354 -20.25,-11.78125 -7.62298,-0.73536 -14.31735,4.64722 -15.09375,11.09375 -0.47404,3.63263 0.48514,6.40147 2.78125,8.40625 1.53963,1.25377 2.94053,2.18518 7.90625,2.71875 8.19342,0.88039 19.71759,-8.1813 24.5,-7.5 3.78926,0.5746 8.73476,10.46282 11.6875,11.03125 0.53902,0.0972 1.0403,0.1194 1.5,0.0625 -4.89489,11.69657 -16.43899,19.9375 -29.90625,19.9375 -17.89545,0 -32.4375,-14.51101 -32.4375,-32.40625 0,-8.94735 11.12258,-19.68995 -2.375,-31.71875 20.831,3.81515 25.86478,-0.71875 34.8125,-0.71875 z m -96.5,25.03125 c 0.70355,-10e-4 1.30419,0.0869 1.8125,0.28125 12.85647,4.78363 28.33926,10.01992 42.5,15.03125 0,0 2.32237,17.00711 14.4375,28.90625 13.18136,12.94693 32.53125,15.65625 32.53125,15.65625 l 25.40625,24.46875 c 10.26992,4.38184 50.78938,-71.62923 60.65625,-65.03125 16.67622,11.1514 -36.36103,107.18146 -66.65625,84.03125 -6.69835,-5.11857 -30.31373,-21.82954 -36.5,-25.96875 -5.12504,-3.42914 -35.07943,30.78431 -46.1875,38.28125 15.84038,10.18225 74.56167,60.72288 73.6875,66.0625 -2.12894,13.00404 -140.64035,16.44527 -140.53125,9.8125 0.24834,-15.09844 88.51485,-22.72094 88.46875,-24.34375 -0.0461,-1.6228 -46.56888,-24.82746 -53.96875,-31.71875 -2.22192,-2.0692 -35.89053,46.01461 -72.6875,62.5625 -5.03391,2.26379 -101.15852,74.76433 -103.96875,67.5 -7.67682,-19.8443 94.00225,-79.34914 97.375,-86.8125 9.40478,-20.81128 50.55792,-62.1312 52.125,-67.6875 6.02821,-21.37386 28.80802,-28.50173 37.40625,-36.6875 6.37545,-6.06962 20.62519,-21.06577 18.75,-27.125 -3.22216,-10.41164 -15.22604,-24.54095 -26.96875,-23.9375 -24.11113,1.23904 -48.02515,37.96277 -57.9375,24.28125 -6.33988,-8.7506 45.94453,-47.53558 60.25,-47.5625 z"
         id="path3817"
         inkscape:connector-curvature="0" />
      <path
         sodipodi:nodetypes="ccccccccccccccczc"
         inkscape:connector-curvature="0"
         id="path3821"
         d="m 534.15304,441.76891 -133.72093,-268.60466 36.04651,-69.76744 -3.48837,-25.581397 -31.39535,56.976747 -9.90172,17.64676 -0.46907,1.1851 -7.07107,-14.1807 -31.39535,-59.302326 -2.32558,32.558136 32.55814,60.46512 -229.06977,452.32558 168.60465,0 69.76744,-258.13953 40.69768,161.62791 c 0,0 48.32699,-3.70019 61.04652,-37.7907 12.71952,-34.0905 40.11627,-49.4186 40.11627,-49.4186 z"
         style="fill:#db3d9c;fill-opacity:1;stroke:none" />
    </g>
  </g>
  <g
     style="display:inline"
     inkscape:label="Schrift Kopie#1"
     id="g3837"
     inkscape:groupmode="layer">
    <text
       sodipodi:linespacing="82.999998%"
       id="text3839"
       y="368.90533"
       x="142.45564"
       style="font-size:40px;font-style:normal;font-weight:normal;line-height:82.99999833%;letter-spacing:0px;word-spacing:0px;fill:#000000;fill-opacity:1;stroke:none;font-family:Sans"
       xml:space="preserve"><tspan
         style="font-size:144px;font-style:normal;font-variant:normal;font-weight:normal;font-stretch:normal;line-height:82.99999833%;fill:#db3d9c;fill-opacity:1;font-family:Good Times;-inkscape-font-specification:Good Times"
         y="368.90533"
         x="142.45564"
         id="tspan3841"
         sodipodi:role="line">            Drupal</tspan><tspan
         id="tspan3843"
         style="font-size:144px;font-style:normal;font-variant:normal;font-weight:normal;font-stretch:normal;line-height:82.99999833%;font-family:Good Times;-inkscape-font-specification:Good Times"
         y="488.42532"
         x="142.45564"
         sodipodi:role="line">Sprintcamp</tspan><tspan
         style="font-size:144px;font-style:normal;font-variant:normal;font-weight:normal;font-stretch:normal;line-height:82.99999833%;fill:#5e95df;fill-opacity:1;font-family:Good Times;-inkscape-font-specification:Good Times"
         id="tspan3845"
         y="607.94531"
         x="142.45564"
         sodipodi:role="line">  Hannover</tspan></text>
  </g>
</svg>
